<svg xmlns="http://www.w3.org/2000/svg" version="1.1" xmlns:xlink="http://www.w3.org/1999/xlink" xmlns:svgjs="http://svgjs.dev/svgjs" width="2000" height="1500" viewBox="0 0 2000 1500"><rect width="2000" height="1500" fill="#000000"></rect><g transform="matrix(0.44603033006244425,0,0,0.44603033006244425,552.5804285781776,250)"><svg viewBox="0 0 321 360" data-background-color="#000000" preserveAspectRatio="xMidYMid meet" height="2242" width="2000" xmlns="http://www.w3.org/2000/svg" xmlns:xlink="http://www.w3.org/1999/xlink"><g id="tight-bounds" transform="matrix(1,0,0,1,0.499953000000005,0)"><svg viewBox="0 0 320 360" height="360" width="320"><rect width="320.000141" height="360" fill="url(#06fa1b21-aae4-401a-b8b7-415b1eb88f94)" mask="url(#6d2f0e2a-c580-4349-ae52-2ef007fddcb5)" data-fill-palette-color="tertiary"></rect><g><svg></svg></g><g><svg viewBox="0 0 320 360" height="360" width="320"><g><path transform="translate(-74.99272,-51.79039) scale(4.65793,4.65793)" d="M20.6 59.9l0.8 1-0.4-1.3c-0.1-0.6-0.8 0.1-0.4 0.3M21.5 59.3c0.3 0.5 0.6 1 0.6 1.5 0 0.7 0.6 1 1.1 1.2-0.7-0.8-1.1-3-1.7-2.7M59.9 16.9c1.7 0 3.3-0.2 5.1 0.2 4.4 1.1 8.1 3.3 10.6 6.4l7 11.2c0.3 2.8 0.9 5.9 0.8 9.3 0.7 0 0.6-1 1.4-1.2-0.8 2-1.2 4.5-1.4 7.4-0.5-1.6 0-4 0.1-5.3-0.7 1.1-1.1 0.3-1.1-0.2 0.1-0.8-0.3-0.7-0.6-1-1.1-1-1.8-2.1-2.6-3.8 0.5-1.3 0.6-3.2-1-4.2-0.5-0.3-1.1-0.8-1.4-1.6-0.4-1.1-1.1-2.4-0.9-4.1 0.1-0.5-1.5 1.1-2.4 0.4-3.9-2.7-7.8-5.8-12.5-8.4-2.5 0-4.3-0.9-5.2-2-0.8-1-0.2-2.3 1-2.4 0.7 0 1.5-0.2 2.1 0.2 0.1-0.4 0.5-0.9 1-0.9M50 14.6l0.2 0.1c1 0.2 1.5 1.6 2.6 1.1 0 0.7 0.1 1.4-0.1 1.9-0.3 0.8-1.2 0.8-1.9 0.8-6.7-0.4-10.6 2.4-14.7 4.8-1.1 0.7-2.3 1.2-3.2 2.1-4.3 4-9 7.7-10.1 15.1l-0.9 8.2c-0.1 0.9-1.1 1.8-0.9 2.9l0.7 4.9c-0.7-0.7-1.1 0.2-0.9 0.6 0.1 0.3 0.5 1.3 1.1 0.4 0.8 1.5 1.6 4.4 2.7 5.7 3.4 4 7.8 7.6 11.4 11.2 0.9-0.2 1.6-0.2 1.8-0.8 0.3 0.6-0.3 1.2-0.8 1.3 1.6 1 3.4 1.9 5.8 2.1 3.1 0.2 6 0.7 8.7 1.4 1.4-0.4 2.8-0.6 4.3-0.7 0.5 0 0.8-0.8 1.4-1l0.1-1c0.6 0.9 0.5-0.3 0.1-0.9 0.7 0.6 0.9 1.1 1.2 1.5 0-0.3 0.8-1.4 0.8-0.1l0.2-1.3c0.3-0.2 0.4 1.1 0.7 0.2 0.3-0.9 0.9-0.2 1.5-0.5-0.2 0.4-0.1 1.2 0.6 0.7l0.8-0.7c0.5 1.2 1.3 0.7 1.7 0.5 4.4-2.8 8.8-6.1 13-9.4l-0.1 1.3 0.5-1.6c0.5 0.5 0.9 0.1 1.1-0.2 0.6-1 1.4-2 2.7-2.9-1.6 4.3-3.5 7.7-5.9 10.5l-1 1.2c0 0.7-0.2 1.6-1 1.7-0.4 0.1-1.2-0.2-1.8 0.4-0.3 0.4 0.7 1.2-0.1 0.6-0.7-0.5-1.4 0-2.2 0.2-0.6 0.2 0.4 0.8 0.6 1.2 0.2 0.4 0.4 0.8 0.3 1.3l-1.1-1.2c-1.3 0.7-2.1 2-3.2 3-0.5 0.4-0.3 1.1-0.3 1.7-0.7 0-1.5-0.2-1.9 0.2-0.3 0.4-0.2 1-0.2 1.6-1-0.1-1.1-1.6-2-1.3-0.9 0.2-1.9 0.3-2.7 0.8 0.6 1.2-1 0.5-0.8 0.7-1.5-0.9-2.8-1.6-4.4-1-3.4-1.1-7.6-0.6-10.7-0.2 0-0.5 0.1-1-0.1-1.1-0.2 0.5-0.8 0.3-0.7 0.3-1.9-1.3-3.8-2.1-5.8-3.2-1.8 0.2-3.5-0.7-4-1.2-1.4-1.3-3-0.6-4.3-0.9-2.8-0.7-3.8-3.6-4.1-5.6-0.2-1-1-1.4-1.3-1.3-1.3-4.2-3.3-8-4.9-11.9-0.4-1-0.3-2-0.3-3.1 0.5 0.2 1 0.1 0.9-0.6-0.5-3.3-1.7-5.8-3-8.2 0.7-3.4 0.8-7.4 2.4-10.4 1.4-2.7 4-4.1 5.8-6.4 0.6-0.8 0.6-1.9 1.2-2.6 2-2 4-4.1 6.2-5.9 1-0.8 2.2 0 3.7-0.3 0.5-1.8 2.5-3.4 4.4-2.9 0.8 0.2 2.4-1.9 2.9-2.1 0.8-0.3 0.4 0.8 0.4 1.5 1.9-1.5 4.5-2.3 6.9-3.2" fill="url(#06fa1b21-aae4-401a-b8b7-415b1eb88f94)" fill-rule="nonzero" stroke="none" stroke-width="1" stroke-linecap="butt" stroke-linejoin="miter" stroke-miterlimit="10" stroke-dasharray="" stroke-dashoffset="0" font-family="none" font-weight="none" font-size="none" text-anchor="none" style="mix-blend-mode: normal" data-fill-palette-color="tertiary"></path></g><g transform="matrix(1,0,0,1,121.44160864461374,90)"><svg viewBox="0 0 77.11678271077253 180" height="180" width="77.11678271077253"><g><svg viewBox="0 0 77.11678271077253 180" height="180" width="77.11678271077253"><g><svg viewBox="0 0 136.50639074863057 318.62260679245287" height="180" width="77.11678271077253"><g transform="matrix(1,0,0,1,0,138.62260679245284)"><svg viewBox="0 0 136.50639074863057 180" height="180" width="136.50639074863057"><g id="textblocktransform"><svg viewBox="0 0 136.50639074863057 180" height="180" width="136.50639074863057" id="textblock"><g><svg viewBox="0 0 136.50639074863057 180" height="180" width="136.50639074863057"><g transform="matrix(1,0,0,1,0,0)"><svg width="136.50639074863057" viewBox="1.78 -28 30.42 40.11" height="180" data-palette-color="url(#1c75b382-2319-45aa-b0b6-394db5965219)"></svg></g></svg></g></svg></g></svg></g><g transform="matrix(1,0,0,1,26.072720632988442,0)"><svg viewBox="0 0 84.36094948265368 112.35628679245285" height="112.35628679245285" width="84.36094948265368"><g><svg xmlns="http://www.w3.org/2000/svg" xmlns:xlink="http://www.w3.org/1999/xlink" version="1.1" x="0" y="0" viewBox="16.3 5.1 67.5 89.9" style="enable-background:new 0 0 100 100;" xml:space="preserve" height="112.35628679245285" width="84.36094948265368" class="icon-icon-0" data-fill-palette-color="accent" id="icon-0"></svg></g></svg></g><g></g></svg></g></svg></g></svg></g></svg></g><defs></defs><mask id="e6e07564-7a27-4802-9b99-d9541b9080ce"><g id="SvgjsG1348"><svg viewBox="0 0 320 360" height="360" width="320"><g><svg></svg></g><g><svg viewBox="0 0 320 360" height="360" width="320"><g><path transform="translate(-74.99272,-51.79039) scale(4.65793,4.65793)" d="M20.6 59.9l0.8 1-0.4-1.3c-0.1-0.6-0.8 0.1-0.4 0.3M21.5 59.3c0.3 0.5 0.6 1 0.6 1.5 0 0.7 0.6 1 1.1 1.2-0.7-0.8-1.1-3-1.7-2.7M59.9 16.9c1.7 0 3.3-0.2 5.1 0.2 4.4 1.1 8.1 3.3 10.6 6.4l7 11.2c0.3 2.8 0.9 5.9 0.8 9.3 0.7 0 0.6-1 1.4-1.2-0.8 2-1.2 4.5-1.4 7.4-0.5-1.6 0-4 0.1-5.3-0.7 1.1-1.1 0.3-1.1-0.2 0.1-0.8-0.3-0.7-0.6-1-1.1-1-1.8-2.1-2.6-3.8 0.5-1.3 0.6-3.2-1-4.2-0.5-0.3-1.1-0.8-1.4-1.6-0.4-1.1-1.1-2.4-0.9-4.1 0.1-0.5-1.5 1.1-2.4 0.4-3.9-2.7-7.8-5.8-12.5-8.4-2.5 0-4.3-0.9-5.2-2-0.8-1-0.2-2.3 1-2.4 0.7 0 1.5-0.2 2.1 0.2 0.1-0.4 0.5-0.9 1-0.9M50 14.6l0.2 0.1c1 0.2 1.5 1.6 2.6 1.1 0 0.7 0.1 1.4-0.1 1.9-0.3 0.8-1.2 0.8-1.9 0.8-6.7-0.4-10.6 2.4-14.7 4.8-1.1 0.7-2.3 1.2-3.2 2.1-4.3 4-9 7.7-10.1 15.1l-0.9 8.2c-0.1 0.9-1.1 1.8-0.9 2.9l0.7 4.9c-0.7-0.7-1.1 0.2-0.9 0.6 0.1 0.3 0.5 1.3 1.1 0.4 0.8 1.5 1.6 4.4 2.7 5.7 3.4 4 7.8 7.6 11.4 11.2 0.9-0.2 1.6-0.2 1.8-0.8 0.3 0.6-0.3 1.2-0.8 1.3 1.6 1 3.4 1.9 5.8 2.1 3.1 0.2 6 0.7 8.7 1.4 1.4-0.4 2.8-0.6 4.3-0.7 0.5 0 0.8-0.8 1.4-1l0.1-1c0.6 0.9 0.5-0.3 0.1-0.9 0.7 0.6 0.9 1.1 1.2 1.5 0-0.3 0.8-1.4 0.8-0.1l0.2-1.3c0.3-0.2 0.4 1.1 0.7 0.2 0.3-0.9 0.9-0.2 1.5-0.5-0.2 0.4-0.1 1.2 0.6 0.7l0.8-0.7c0.5 1.2 1.3 0.7 1.7 0.5 4.4-2.8 8.8-6.1 13-9.4l-0.1 1.3 0.5-1.6c0.5 0.5 0.9 0.1 1.1-0.2 0.6-1 1.4-2 2.7-2.9-1.6 4.3-3.5 7.7-5.9 10.5l-1 1.2c0 0.7-0.2 1.6-1 1.7-0.4 0.1-1.2-0.2-1.8 0.4-0.3 0.4 0.7 1.2-0.1 0.6-0.7-0.5-1.4 0-2.2 0.2-0.6 0.2 0.4 0.8 0.6 1.2 0.2 0.4 0.4 0.8 0.3 1.3l-1.1-1.2c-1.3 0.7-2.1 2-3.2 3-0.5 0.4-0.3 1.1-0.3 1.7-0.7 0-1.5-0.2-1.9 0.2-0.3 0.4-0.2 1-0.2 1.6-1-0.1-1.1-1.6-2-1.3-0.9 0.2-1.9 0.3-2.7 0.8 0.6 1.2-1 0.5-0.8 0.7-1.5-0.9-2.8-1.6-4.4-1-3.4-1.1-7.6-0.6-10.7-0.2 0-0.5 0.1-1-0.1-1.1-0.2 0.5-0.8 0.3-0.7 0.3-1.9-1.3-3.8-2.1-5.8-3.2-1.8 0.2-3.5-0.7-4-1.2-1.4-1.3-3-0.6-4.3-0.9-2.8-0.7-3.8-3.6-4.1-5.6-0.2-1-1-1.4-1.3-1.3-1.3-4.2-3.3-8-4.9-11.9-0.4-1-0.3-2-0.3-3.1 0.5 0.2 1 0.1 0.9-0.6-0.5-3.3-1.7-5.8-3-8.2 0.7-3.4 0.8-7.4 2.4-10.4 1.4-2.7 4-4.1 5.8-6.4 0.6-0.8 0.6-1.9 1.2-2.6 2-2 4-4.1 6.2-5.9 1-0.8 2.2 0 3.7-0.3 0.5-1.8 2.5-3.4 4.4-2.9 0.8 0.2 2.4-1.9 2.9-2.1 0.8-0.3 0.4 0.8 0.4 1.5 1.9-1.5 4.5-2.3 6.9-3.2" fill="black" fill-rule="nonzero" stroke="none" stroke-width="1" stroke-linecap="butt" stroke-linejoin="miter" stroke-miterlimit="10" stroke-dasharray="" stroke-dashoffset="0" font-family="none" font-weight="none" font-size="none" text-anchor="none" style="mix-blend-mode: normal"></path></g><g transform="matrix(1,0,0,1,121.44160864461374,90)"><svg viewBox="0 0 77.11678271077253 180" height="180" width="77.11678271077253"><g><svg viewBox="0 0 77.11678271077253 180" height="180" width="77.11678271077253"><g><svg viewBox="0 0 136.50639074863057 318.62260679245287" height="180" width="77.11678271077253"><g transform="matrix(1,0,0,1,0,138.62260679245284)"><svg viewBox="0 0 136.50639074863057 180" height="180" width="136.50639074863057"><g id="SvgjsG1347"><svg viewBox="0 0 136.50639074863057 180" height="180" width="136.50639074863057" id="SvgjsSvg1346"><g><svg viewBox="0 0 136.50639074863057 180" height="180" width="136.50639074863057"><g transform="matrix(1,0,0,1,0,0)"><svg width="136.50639074863057" viewBox="1.78 -28 30.42 40.11" height="180" data-palette-color="url(#1c75b382-2319-45aa-b0b6-394db5965219)"><path d="M13.92-17.41L13.84-17.04Q13.7-14.7 13.59-13.23 13.48-11.77 13.4-10.85 13.33-9.94 13.28-9.41 13.23-8.89 13.21-8.42L13.21-8.42Q13.77-6.96 14.87-6.04 15.97-5.13 17.5-5.13L17.5-5.13Q18.85-5.13 19.86-5.97 20.87-6.81 21.55-8.15 22.22-9.5 22.56-11.16 22.9-12.82 22.9-14.45L22.9-14.45Q22.9-15.8 22.67-16.94 22.44-18.09 21.97-18.93 21.51-19.78 20.81-20.25 20.12-20.73 19.17-20.73L19.17-20.73Q18.38-20.73 17.61-20.42 16.85-20.12 16.14-19.64 15.43-19.17 14.86-18.57 14.28-17.97 13.92-17.41L13.92-17.41ZM14.33-24.19L14.33-24.19Q16.38-25.59 18.63-26.42 20.87-27.25 23.32-27.25L23.32-27.25Q25.61-27.25 27.28-26.31 28.96-25.37 30.05-23.77 31.15-22.17 31.68-20.09 32.2-18.02 32.2-15.75L32.2-15.75Q32.2-13.77 31.81-11.74 31.42-9.72 30.66-7.82 29.91-5.93 28.78-4.27 27.66-2.61 26.21-1.38 24.76-0.15 22.97 0.56 21.19 1.27 19.12 1.27L19.12 1.27Q17.29 1.27 15.61 0.54 13.94-0.2 12.48-1.37L12.48-1.37Q12.48-1.25 12.41-0.48 12.35 0.29 12.26 1.39 12.16 2.49 12.04 3.75 11.91 5 11.82 6.1 11.72 7.2 11.66 7.97 11.6 8.74 11.6 8.86L11.6 8.86Q11.6 9.06 11.61 9.19 11.62 9.33 11.62 9.45L11.62 9.45Q11.62 9.64 11.44 9.78 11.25 9.91 10.62 10.08L10.62 10.08 4.2 11.72Q3.93 11.79 3.49 11.95 3.05 12.11 2.64 12.11L2.64 12.11Q2.29 12.11 2.04 11.94 1.78 11.77 1.78 11.3L1.78 11.3 4.76-24.44Q4.83-25.24 4.94-25.55 5.05-25.85 5.49-25.95L5.49-25.95Q7.71-26.39 10.06-26.84 12.4-27.29 14.62-28L14.62-28Q14.82-28 14.86-27.94 14.89-27.88 14.89-27.76L14.89-27.76Q14.89-27.71 14.88-27.61 14.87-27.51 14.81-27.17 14.75-26.83 14.64-26.14 14.53-25.44 14.33-24.19Z" opacity="1" transform="matrix(1,0,0,1,0,0)" fill="white" class="wordmark-text-0" id="SvgjsPath1345"></path></svg></g></svg></g></svg></g></svg></g><g transform="matrix(1,0,0,1,26.072720632988442,0)"><svg viewBox="0 0 84.36094948265368 112.35628679245285" height="112.35628679245285" width="84.36094948265368"><g><svg xmlns="http://www.w3.org/2000/svg" xmlns:xlink="http://www.w3.org/1999/xlink" version="1.1" x="0" y="0" viewBox="16.3 5.1 67.5 89.9" style="enable-background:new 0 0 100 100;" xml:space="preserve" height="112.35628679245285" width="84.36094948265368" class="icon-icon-0" data-fill-palette-color="accent" id="SvgjsSvg1344"><g fill="black"><g fill="black"><path d="M83.7 26.3C83.7 25.5 83.4 24.7 82.8 24.1L66 6.1C65.4 5.4 64.5 5.1 63.6 5.1H21.6C18.7 5.1 16.3 7.5 16.3 10.4V89.7C16.3 92.6 18.7 95 21.6 95H78.5C81.4 95 83.8 92.6 83.8 89.7zM78.5 91H21.6C20.9 91 20.3 90.4 20.3 89.7V10.4C20.3 9.7 20.9 9.1 21.6 9.1H62.9V21C62.9 24.2 65.5 26.8 68.7 26.8H79.8V89.7C79.8 90.4 79.2 91 78.5 91" fill="black"></path><path d="M41 72.8H36.1V70H39.5C40.3 70 40.7 69.6 40.7 68.8V68C40.7 67.2 40.3 66.8 39.5 66.8H36.1V64.1H40.7C41.5 64.1 41.9 63.7 41.9 62.9V62.1C41.9 61.3 41.5 60.9 40.7 60.9H33.6C32.8 60.9 32.4 61.3 32.4 62.1V74.8C32.4 75.6 32.8 76 33.6 76H41C41.8 76 42.2 75.6 42.2 74.8V74C42.2 73.2 41.8 72.8 41 72.8" fill="black"></path><path d="M51.9 60.9H46.8C46 60.9 45.6 61.3 45.6 62.1V74.8C45.6 75.6 46 76 46.8 76H48.2C49 76 49.4 75.6 49.4 74.8V71.3H52C54.9 71.3 56.9 69.1 56.9 66.1S54.8 60.9 51.9 60.9M51.2 68.1H49.4V64H51.3C52.5 64 53.1 64.8 53.1 66 53.1 67.3 52.4 68.1 51.2 68.1" fill="black"></path><path d="M63.2 65.1C63.2 64.5 63.7 64.1 64.8 64.1 65.8 64.1 66.5 64.5 67.2 64.8 67.8 65.1 68.4 65.2 68.8 64.4L69.3 63.4C69.6 62.8 69.6 62.3 68.9 61.8S66.6 60.7 64.8 60.7C61.8 60.7 59.4 62.5 59.4 65.3 59.4 70 66 69.7 66 71.8 66 72.4 65.5 72.8 64.4 72.8 63.1 72.8 62.2 72.1 61.7 71.9 61 71.5 60.5 71.6 60.1 72.2L59.4 73.1C58.9 73.9 59.2 74.3 59.6 74.7 60.4 75.3 62.3 76.2 64.4 76.2 67.8 76.2 69.7 74 69.7 71.5 69.9 66.8 63.2 67.3 63.2 65.1" fill="black"></path></g></g></svg></g></svg></g><g></g></svg></g></svg></g></svg></g></svg></g><defs><mask></mask></defs></svg><rect width="320" height="360" fill="black" stroke="none" visibility="hidden"></rect></g></mask><linearGradient x1="0" x2="1" y1="0.578" y2="0.595" id="1c75b382-2319-45aa-b0b6-394db5965219"><stop stop-color="#dede50" offset="0"></stop><stop stop-color="#559c49" offset="1"></stop></linearGradient><rect width="320.000047" height="360" fill="url(#1c75b382-2319-45aa-b0b6-394db5965219)" mask="url(#e6e07564-7a27-4802-9b99-d9541b9080ce)" data-fill-palette-color="primary"></rect><mask id="60a1c1be-bf49-4a20-aed4-721598029e69"><g id="SvgjsG1367"><svg viewBox="0 0 320 360" height="360" width="320"><g><svg></svg></g><g><svg viewBox="0 0 320 360" height="360" width="320"><g><path transform="translate(-74.99272,-51.79039) scale(4.65793,4.65793)" d="M20.6 59.9l0.8 1-0.4-1.3c-0.1-0.6-0.8 0.1-0.4 0.3M21.5 59.3c0.3 0.5 0.6 1 0.6 1.5 0 0.7 0.6 1 1.1 1.2-0.7-0.8-1.1-3-1.7-2.7M59.9 16.9c1.7 0 3.3-0.2 5.1 0.2 4.4 1.1 8.1 3.3 10.6 6.4l7 11.2c0.3 2.8 0.9 5.9 0.8 9.3 0.7 0 0.6-1 1.4-1.2-0.8 2-1.2 4.5-1.4 7.4-0.5-1.6 0-4 0.1-5.3-0.7 1.1-1.1 0.3-1.1-0.2 0.1-0.8-0.3-0.7-0.6-1-1.1-1-1.8-2.1-2.6-3.8 0.5-1.3 0.6-3.2-1-4.2-0.5-0.3-1.1-0.8-1.4-1.6-0.4-1.1-1.1-2.4-0.9-4.1 0.1-0.5-1.5 1.1-2.4 0.4-3.9-2.7-7.8-5.8-12.5-8.4-2.5 0-4.3-0.9-5.2-2-0.8-1-0.2-2.3 1-2.4 0.7 0 1.5-0.2 2.1 0.2 0.1-0.4 0.5-0.9 1-0.9M50 14.6l0.2 0.1c1 0.2 1.5 1.6 2.6 1.1 0 0.7 0.1 1.4-0.1 1.9-0.3 0.8-1.2 0.8-1.9 0.8-6.7-0.4-10.6 2.4-14.7 4.8-1.1 0.7-2.3 1.2-3.2 2.1-4.3 4-9 7.7-10.1 15.1l-0.9 8.2c-0.1 0.9-1.1 1.8-0.9 2.9l0.7 4.9c-0.7-0.7-1.1 0.2-0.9 0.6 0.1 0.3 0.5 1.3 1.1 0.4 0.8 1.5 1.6 4.4 2.7 5.7 3.4 4 7.8 7.6 11.4 11.2 0.9-0.2 1.6-0.2 1.8-0.8 0.3 0.6-0.3 1.2-0.8 1.3 1.6 1 3.4 1.9 5.8 2.1 3.1 0.2 6 0.7 8.7 1.4 1.4-0.4 2.8-0.6 4.3-0.7 0.5 0 0.8-0.8 1.4-1l0.1-1c0.6 0.9 0.5-0.3 0.1-0.9 0.7 0.6 0.9 1.1 1.2 1.5 0-0.3 0.8-1.4 0.8-0.1l0.2-1.3c0.3-0.2 0.4 1.1 0.7 0.2 0.3-0.9 0.9-0.2 1.5-0.5-0.2 0.4-0.1 1.2 0.6 0.7l0.8-0.7c0.5 1.2 1.3 0.7 1.7 0.5 4.4-2.8 8.8-6.1 13-9.4l-0.1 1.3 0.5-1.6c0.5 0.5 0.9 0.1 1.1-0.2 0.6-1 1.4-2 2.7-2.9-1.6 4.3-3.5 7.7-5.9 10.5l-1 1.2c0 0.7-0.2 1.6-1 1.7-0.4 0.1-1.2-0.2-1.8 0.4-0.3 0.4 0.7 1.2-0.1 0.6-0.7-0.5-1.4 0-2.2 0.2-0.6 0.2 0.4 0.8 0.6 1.2 0.2 0.4 0.4 0.8 0.3 1.3l-1.1-1.2c-1.3 0.7-2.1 2-3.2 3-0.5 0.4-0.3 1.1-0.3 1.7-0.7 0-1.5-0.2-1.9 0.2-0.3 0.4-0.2 1-0.2 1.6-1-0.1-1.1-1.6-2-1.3-0.9 0.2-1.9 0.3-2.7 0.8 0.6 1.2-1 0.5-0.8 0.7-1.5-0.9-2.8-1.6-4.4-1-3.4-1.1-7.6-0.6-10.7-0.2 0-0.5 0.1-1-0.1-1.1-0.2 0.5-0.8 0.3-0.7 0.3-1.9-1.3-3.8-2.1-5.8-3.2-1.8 0.2-3.5-0.7-4-1.2-1.4-1.3-3-0.6-4.3-0.9-2.8-0.7-3.8-3.6-4.1-5.6-0.2-1-1-1.4-1.3-1.3-1.3-4.2-3.3-8-4.9-11.9-0.4-1-0.3-2-0.3-3.1 0.5 0.2 1 0.1 0.9-0.6-0.5-3.3-1.7-5.8-3-8.2 0.7-3.4 0.8-7.4 2.4-10.4 1.4-2.7 4-4.1 5.8-6.4 0.6-0.8 0.6-1.9 1.2-2.6 2-2 4-4.1 6.2-5.9 1-0.8 2.2 0 3.7-0.3 0.5-1.8 2.5-3.4 4.4-2.9 0.8 0.2 2.4-1.9 2.9-2.1 0.8-0.3 0.4 0.8 0.4 1.5 1.9-1.5 4.5-2.3 6.9-3.2" fill="black" fill-rule="nonzero" stroke="none" stroke-width="1" stroke-linecap="butt" stroke-linejoin="miter" stroke-miterlimit="10" stroke-dasharray="" stroke-dashoffset="0" font-family="none" font-weight="none" font-size="none" text-anchor="none" style="mix-blend-mode: normal"></path></g><g transform="matrix(1,0,0,1,121.44160864461374,90)"><svg viewBox="0 0 77.11678271077253 180" height="180" width="77.11678271077253"><g><svg viewBox="0 0 77.11678271077253 180" height="180" width="77.11678271077253"><g><svg viewBox="0 0 136.50639074863057 318.62260679245287" height="180" width="77.11678271077253"><g transform="matrix(1,0,0,1,0,138.62260679245284)"><svg viewBox="0 0 136.50639074863057 180" height="180" width="136.50639074863057"><g id="SvgjsG1366"><svg viewBox="0 0 136.50639074863057 180" height="180" width="136.50639074863057" id="SvgjsSvg1365"><g><svg viewBox="0 0 136.50639074863057 180" height="180" width="136.50639074863057"><g transform="matrix(1,0,0,1,0,0)"><svg width="136.50639074863057" viewBox="1.78 -28 30.42 40.11" height="180" data-palette-color="url(#1c75b382-2319-45aa-b0b6-394db5965219)"></svg></g></svg></g></svg></g></svg></g><g transform="matrix(1,0,0,1,26.072720632988442,0)"><svg viewBox="0 0 84.36094948265368 112.35628679245285" height="112.35628679245285" width="84.36094948265368"><g><svg xmlns="http://www.w3.org/2000/svg" xmlns:xlink="http://www.w3.org/1999/xlink" version="1.1" x="0" y="0" viewBox="16.3 5.1 67.5 89.9" style="enable-background:new 0 0 100 100;" xml:space="preserve" height="112.35628679245285" width="84.36094948265368" class="icon-icon-0" data-fill-palette-color="accent" id="SvgjsSvg1364"><g fill="white"><g fill="white"><path d="M83.7 26.3C83.7 25.5 83.4 24.7 82.8 24.1L66 6.1C65.4 5.4 64.5 5.1 63.6 5.1H21.6C18.7 5.1 16.3 7.5 16.3 10.4V89.7C16.3 92.6 18.7 95 21.6 95H78.5C81.4 95 83.8 92.6 83.8 89.7zM78.5 91H21.6C20.9 91 20.3 90.4 20.3 89.7V10.4C20.3 9.7 20.9 9.1 21.6 9.1H62.9V21C62.9 24.2 65.5 26.8 68.7 26.8H79.8V89.7C79.8 90.4 79.2 91 78.5 91" fill="white"></path><path d="M41 72.8H36.1V70H39.5C40.3 70 40.7 69.6 40.7 68.8V68C40.7 67.2 40.3 66.8 39.5 66.8H36.1V64.1H40.7C41.5 64.1 41.9 63.7 41.9 62.9V62.1C41.9 61.3 41.5 60.9 40.7 60.9H33.6C32.8 60.9 32.4 61.3 32.4 62.1V74.8C32.4 75.6 32.8 76 33.6 76H41C41.8 76 42.2 75.6 42.2 74.8V74C42.2 73.2 41.8 72.8 41 72.8" fill="white"></path><path d="M51.9 60.9H46.8C46 60.9 45.6 61.3 45.6 62.1V74.8C45.6 75.6 46 76 46.8 76H48.2C49 76 49.4 75.6 49.4 74.8V71.3H52C54.9 71.3 56.9 69.1 56.9 66.1S54.8 60.9 51.9 60.9M51.2 68.1H49.4V64H51.3C52.5 64 53.1 64.8 53.1 66 53.1 67.3 52.4 68.1 51.2 68.1" fill="white"></path><path d="M63.2 65.1C63.2 64.5 63.7 64.1 64.8 64.1 65.8 64.1 66.5 64.5 67.2 64.8 67.8 65.1 68.4 65.2 68.8 64.4L69.3 63.4C69.6 62.8 69.6 62.3 68.9 61.8S66.6 60.7 64.8 60.7C61.8 60.7 59.4 62.5 59.4 65.3 59.4 70 66 69.7 66 71.8 66 72.4 65.5 72.8 64.4 72.8 63.1 72.8 62.2 72.1 61.7 71.9 61 71.5 60.5 71.6 60.1 72.2L59.4 73.1C58.9 73.9 59.2 74.3 59.6 74.7 60.4 75.3 62.3 76.2 64.4 76.2 67.8 76.2 69.7 74 69.7 71.5 69.9 66.8 63.2 67.3 63.2 65.1" fill="white"></path></g></g></svg></g></svg></g><g></g></svg></g></svg></g></svg></g></svg></g><defs><mask></mask></defs><mask><g id="SvgjsG1363"><svg viewBox="0 0 320 360" height="360" width="320"><g><svg></svg></g><g><svg viewBox="0 0 320 360" height="360" width="320"><g><path transform="translate(-74.99272,-51.79039) scale(4.65793,4.65793)" d="M20.6 59.9l0.8 1-0.4-1.3c-0.1-0.6-0.8 0.1-0.4 0.3M21.5 59.3c0.3 0.5 0.6 1 0.6 1.5 0 0.7 0.6 1 1.1 1.2-0.7-0.8-1.1-3-1.7-2.7M59.9 16.9c1.7 0 3.3-0.2 5.1 0.2 4.4 1.1 8.1 3.3 10.6 6.4l7 11.2c0.3 2.8 0.9 5.9 0.8 9.3 0.7 0 0.6-1 1.4-1.2-0.8 2-1.2 4.5-1.4 7.4-0.5-1.6 0-4 0.1-5.3-0.7 1.1-1.1 0.3-1.1-0.2 0.1-0.8-0.3-0.7-0.6-1-1.1-1-1.8-2.1-2.6-3.8 0.5-1.3 0.6-3.2-1-4.2-0.5-0.3-1.1-0.8-1.4-1.6-0.4-1.1-1.1-2.4-0.9-4.1 0.1-0.5-1.5 1.1-2.4 0.4-3.9-2.7-7.8-5.8-12.5-8.4-2.5 0-4.3-0.9-5.2-2-0.8-1-0.2-2.3 1-2.4 0.7 0 1.5-0.2 2.1 0.2 0.1-0.4 0.5-0.9 1-0.9M50 14.6l0.2 0.1c1 0.2 1.5 1.6 2.6 1.1 0 0.7 0.1 1.4-0.1 1.9-0.3 0.8-1.2 0.8-1.9 0.8-6.7-0.4-10.6 2.4-14.7 4.8-1.1 0.7-2.3 1.2-3.2 2.1-4.3 4-9 7.7-10.1 15.1l-0.9 8.2c-0.1 0.9-1.1 1.8-0.9 2.9l0.7 4.9c-0.7-0.7-1.1 0.2-0.9 0.6 0.1 0.3 0.5 1.3 1.1 0.4 0.8 1.5 1.6 4.4 2.7 5.7 3.4 4 7.8 7.6 11.4 11.2 0.9-0.2 1.6-0.2 1.8-0.8 0.3 0.6-0.3 1.2-0.8 1.3 1.6 1 3.4 1.9 5.8 2.1 3.1 0.2 6 0.7 8.7 1.4 1.4-0.4 2.8-0.6 4.3-0.7 0.5 0 0.8-0.8 1.4-1l0.1-1c0.6 0.9 0.5-0.3 0.1-0.9 0.7 0.6 0.9 1.1 1.2 1.5 0-0.3 0.8-1.4 0.8-0.1l0.2-1.3c0.3-0.2 0.4 1.1 0.7 0.2 0.3-0.9 0.9-0.2 1.5-0.5-0.2 0.4-0.1 1.2 0.6 0.7l0.8-0.7c0.5 1.2 1.3 0.7 1.7 0.5 4.4-2.8 8.8-6.1 13-9.4l-0.1 1.3 0.5-1.6c0.5 0.5 0.9 0.1 1.1-0.2 0.6-1 1.4-2 2.7-2.9-1.6 4.3-3.5 7.7-5.9 10.5l-1 1.2c0 0.7-0.2 1.6-1 1.7-0.4 0.1-1.2-0.2-1.8 0.4-0.3 0.4 0.7 1.2-0.1 0.6-0.7-0.5-1.4 0-2.2 0.2-0.6 0.2 0.4 0.8 0.6 1.2 0.2 0.4 0.4 0.8 0.3 1.3l-1.1-1.2c-1.3 0.7-2.1 2-3.2 3-0.5 0.4-0.3 1.1-0.3 1.7-0.7 0-1.5-0.2-1.9 0.2-0.3 0.4-0.2 1-0.2 1.6-1-0.1-1.1-1.6-2-1.3-0.9 0.2-1.9 0.3-2.7 0.8 0.6 1.2-1 0.5-0.8 0.7-1.5-0.9-2.8-1.6-4.4-1-3.4-1.1-7.6-0.6-10.7-0.2 0-0.5 0.1-1-0.1-1.1-0.2 0.5-0.8 0.3-0.7 0.3-1.9-1.3-3.8-2.1-5.8-3.2-1.8 0.2-3.5-0.7-4-1.2-1.4-1.3-3-0.6-4.3-0.9-2.8-0.7-3.8-3.6-4.1-5.6-0.2-1-1-1.4-1.3-1.3-1.3-4.2-3.3-8-4.9-11.9-0.4-1-0.3-2-0.3-3.1 0.5 0.2 1 0.1 0.9-0.6-0.5-3.3-1.7-5.8-3-8.2 0.7-3.4 0.8-7.4 2.4-10.4 1.4-2.7 4-4.1 5.8-6.4 0.6-0.8 0.6-1.9 1.2-2.6 2-2 4-4.1 6.2-5.9 1-0.8 2.2 0 3.7-0.3 0.5-1.8 2.5-3.4 4.4-2.9 0.8 0.2 2.4-1.9 2.9-2.1 0.8-0.3 0.4 0.8 0.4 1.5 1.9-1.5 4.5-2.3 6.9-3.2" fill="black" fill-rule="nonzero" stroke="none" stroke-width="1" stroke-linecap="butt" stroke-linejoin="miter" stroke-miterlimit="10" stroke-dasharray="" stroke-dashoffset="0" font-family="none" font-weight="none" font-size="none" text-anchor="none" style="mix-blend-mode: normal"></path></g><g transform="matrix(1,0,0,1,121.44160864461374,90)"><svg viewBox="0 0 77.11678271077253 180" height="180" width="77.11678271077253"><g><svg viewBox="0 0 77.11678271077253 180" height="180" width="77.11678271077253"><g><svg viewBox="0 0 136.50639074863057 318.62260679245287" height="180" width="77.11678271077253"><g transform="matrix(1,0,0,1,0,138.62260679245284)"><svg viewBox="0 0 136.50639074863057 180" height="180" width="136.50639074863057"><g id="SvgjsG1362"><svg viewBox="0 0 136.50639074863057 180" height="180" width="136.50639074863057" id="SvgjsSvg1361"><g><svg viewBox="0 0 136.50639074863057 180" height="180" width="136.50639074863057"><g transform="matrix(1,0,0,1,0,0)"><svg width="136.50639074863057" viewBox="1.78 -28 30.42 40.11" height="180" data-palette-color="url(#1c75b382-2319-45aa-b0b6-394db5965219)"><path d="M13.92-17.41L13.84-17.04Q13.7-14.7 13.59-13.23 13.48-11.77 13.4-10.85 13.33-9.94 13.28-9.41 13.23-8.89 13.21-8.42L13.21-8.42Q13.77-6.96 14.87-6.04 15.97-5.13 17.5-5.13L17.5-5.13Q18.85-5.13 19.86-5.97 20.87-6.81 21.55-8.15 22.22-9.5 22.56-11.16 22.9-12.82 22.9-14.45L22.9-14.45Q22.9-15.8 22.67-16.94 22.44-18.09 21.97-18.93 21.51-19.78 20.81-20.25 20.12-20.73 19.17-20.73L19.17-20.73Q18.38-20.73 17.61-20.42 16.85-20.12 16.14-19.64 15.43-19.17 14.86-18.57 14.28-17.97 13.92-17.41L13.92-17.41ZM14.33-24.19L14.33-24.19Q16.38-25.59 18.63-26.42 20.87-27.25 23.32-27.25L23.32-27.25Q25.61-27.25 27.28-26.31 28.96-25.37 30.05-23.77 31.15-22.17 31.68-20.09 32.2-18.02 32.2-15.75L32.2-15.75Q32.2-13.77 31.81-11.74 31.42-9.72 30.66-7.82 29.91-5.93 28.78-4.27 27.66-2.61 26.21-1.38 24.76-0.15 22.97 0.56 21.19 1.27 19.12 1.27L19.12 1.27Q17.29 1.27 15.61 0.54 13.94-0.2 12.48-1.37L12.48-1.37Q12.48-1.25 12.41-0.48 12.35 0.29 12.26 1.39 12.16 2.49 12.04 3.75 11.91 5 11.82 6.1 11.72 7.2 11.66 7.97 11.6 8.74 11.6 8.86L11.6 8.86Q11.6 9.06 11.61 9.19 11.62 9.33 11.62 9.45L11.62 9.45Q11.62 9.64 11.44 9.78 11.25 9.91 10.62 10.08L10.62 10.08 4.2 11.72Q3.93 11.79 3.49 11.95 3.05 12.11 2.64 12.11L2.64 12.11Q2.29 12.11 2.04 11.94 1.78 11.77 1.78 11.3L1.78 11.3 4.76-24.44Q4.83-25.24 4.94-25.55 5.05-25.85 5.49-25.95L5.49-25.95Q7.71-26.39 10.06-26.84 12.4-27.29 14.62-28L14.62-28Q14.82-28 14.86-27.94 14.89-27.88 14.89-27.76L14.89-27.76Q14.89-27.71 14.88-27.61 14.87-27.51 14.81-27.17 14.75-26.83 14.64-26.14 14.53-25.44 14.33-24.19Z" opacity="1" transform="matrix(1,0,0,1,0,0)" fill="black" class="wordmark-text-0" id="SvgjsPath1360"></path></svg></g></svg></g></svg></g></svg></g><g transform="matrix(1,0,0,1,26.072720632988442,0)"><svg viewBox="0 0 84.36094948265368 112.35628679245285" height="112.35628679245285" width="84.36094948265368"><g><svg xmlns="http://www.w3.org/2000/svg" xmlns:xlink="http://www.w3.org/1999/xlink" version="1.1" x="0" y="0" viewBox="16.3 5.1 67.5 89.9" style="enable-background:new 0 0 100 100;" xml:space="preserve" height="112.35628679245285" width="84.36094948265368" class="icon-icon-0" data-fill-palette-color="accent" id="SvgjsSvg1359"><g fill="black"><g fill="black"><path d="M83.7 26.3C83.7 25.5 83.4 24.7 82.8 24.1L66 6.1C65.4 5.4 64.5 5.1 63.6 5.1H21.6C18.7 5.1 16.3 7.5 16.3 10.4V89.7C16.3 92.6 18.7 95 21.6 95H78.5C81.4 95 83.8 92.6 83.8 89.7zM78.5 91H21.6C20.9 91 20.3 90.4 20.3 89.7V10.4C20.3 9.7 20.9 9.1 21.6 9.1H62.9V21C62.9 24.2 65.5 26.8 68.7 26.8H79.8V89.7C79.8 90.4 79.2 91 78.5 91" fill="black"></path><path d="M41 72.8H36.1V70H39.5C40.3 70 40.7 69.6 40.7 68.8V68C40.7 67.2 40.3 66.8 39.5 66.8H36.1V64.1H40.7C41.5 64.1 41.9 63.7 41.9 62.9V62.1C41.9 61.3 41.5 60.9 40.7 60.9H33.6C32.8 60.9 32.4 61.3 32.4 62.1V74.8C32.4 75.6 32.8 76 33.6 76H41C41.8 76 42.2 75.6 42.2 74.8V74C42.2 73.2 41.8 72.8 41 72.8" fill="black"></path><path d="M51.9 60.9H46.8C46 60.9 45.6 61.3 45.6 62.1V74.8C45.6 75.6 46 76 46.8 76H48.2C49 76 49.4 75.6 49.4 74.8V71.3H52C54.9 71.3 56.9 69.1 56.9 66.1S54.8 60.9 51.9 60.9M51.2 68.1H49.4V64H51.3C52.5 64 53.1 64.8 53.1 66 53.1 67.3 52.4 68.1 51.2 68.1" fill="black"></path><path d="M63.2 65.1C63.2 64.5 63.7 64.1 64.8 64.1 65.8 64.1 66.5 64.5 67.2 64.8 67.8 65.1 68.4 65.2 68.8 64.4L69.3 63.4C69.6 62.8 69.6 62.3 68.9 61.8S66.6 60.7 64.8 60.7C61.8 60.7 59.4 62.5 59.4 65.3 59.4 70 66 69.7 66 71.8 66 72.4 65.5 72.8 64.4 72.8 63.1 72.8 62.2 72.1 61.7 71.9 61 71.5 60.5 71.6 60.1 72.2L59.4 73.1C58.9 73.9 59.2 74.3 59.6 74.7 60.4 75.3 62.3 76.2 64.4 76.2 67.8 76.2 69.7 74 69.7 71.5 69.9 66.8 63.2 67.3 63.2 65.1" fill="black"></path></g></g></svg></g></svg></g><g></g></svg></g></svg></g></svg></g></svg></g><defs><mask></mask></defs></svg><rect width="320" height="360" fill="black" stroke="none" visibility="hidden"></rect></g></mask></svg><rect width="320" height="360" fill="black" stroke="none" visibility="hidden"></rect></g></mask><linearGradient x1="0" x2="1" y1="0.578" y2="0.595" id="1d7e793d-3c97-4ef1-b6e8-3db35f842229"><stop stop-color="#dede50" offset="0"></stop><stop stop-color="#559c49" offset="1"></stop></linearGradient><rect width="320.000094" height="360" fill="url(#1d7e793d-3c97-4ef1-b6e8-3db35f842229)" mask="url(#60a1c1be-bf49-4a20-aed4-721598029e69)" data-fill-palette-color="accent"></rect><mask id="6d2f0e2a-c580-4349-ae52-2ef007fddcb5"><g id="SvgjsG1385"><svg viewBox="0 0 320 360" height="360" width="320"><g><svg></svg></g><g><svg viewBox="0 0 320 360" height="360" width="320"><g><path transform="translate(-74.99272,-51.79039) scale(4.65793,4.65793)" d="M20.6 59.9l0.8 1-0.4-1.3c-0.1-0.6-0.8 0.1-0.4 0.3M21.5 59.3c0.3 0.5 0.6 1 0.6 1.5 0 0.7 0.6 1 1.1 1.2-0.7-0.8-1.1-3-1.7-2.7M59.9 16.9c1.7 0 3.3-0.2 5.1 0.2 4.4 1.1 8.1 3.3 10.6 6.4l7 11.2c0.3 2.8 0.9 5.9 0.8 9.3 0.7 0 0.6-1 1.4-1.2-0.8 2-1.2 4.5-1.4 7.4-0.5-1.6 0-4 0.1-5.3-0.7 1.1-1.1 0.3-1.1-0.2 0.1-0.8-0.3-0.7-0.6-1-1.1-1-1.8-2.1-2.6-3.8 0.5-1.3 0.6-3.2-1-4.2-0.5-0.3-1.1-0.8-1.4-1.6-0.4-1.1-1.1-2.4-0.9-4.1 0.1-0.5-1.5 1.1-2.4 0.4-3.9-2.7-7.8-5.8-12.5-8.4-2.5 0-4.3-0.9-5.2-2-0.8-1-0.2-2.3 1-2.4 0.7 0 1.5-0.2 2.1 0.2 0.1-0.4 0.5-0.9 1-0.9M50 14.6l0.2 0.1c1 0.2 1.5 1.6 2.6 1.1 0 0.7 0.1 1.4-0.1 1.9-0.3 0.8-1.2 0.8-1.9 0.8-6.7-0.4-10.6 2.4-14.7 4.8-1.1 0.7-2.3 1.2-3.2 2.1-4.3 4-9 7.7-10.1 15.1l-0.9 8.2c-0.1 0.9-1.1 1.8-0.9 2.9l0.7 4.9c-0.7-0.7-1.1 0.2-0.9 0.6 0.1 0.3 0.5 1.3 1.1 0.4 0.8 1.5 1.6 4.4 2.7 5.7 3.4 4 7.8 7.6 11.4 11.2 0.9-0.2 1.6-0.2 1.8-0.8 0.3 0.6-0.3 1.2-0.8 1.3 1.6 1 3.4 1.9 5.8 2.1 3.1 0.2 6 0.7 8.7 1.4 1.4-0.4 2.8-0.6 4.3-0.7 0.5 0 0.8-0.8 1.4-1l0.1-1c0.6 0.9 0.5-0.3 0.1-0.9 0.7 0.6 0.9 1.1 1.2 1.5 0-0.3 0.8-1.4 0.8-0.1l0.2-1.3c0.3-0.2 0.4 1.1 0.7 0.2 0.3-0.9 0.9-0.2 1.5-0.5-0.2 0.4-0.1 1.2 0.6 0.7l0.8-0.7c0.5 1.2 1.3 0.7 1.7 0.5 4.4-2.8 8.8-6.1 13-9.4l-0.1 1.3 0.5-1.6c0.5 0.5 0.9 0.1 1.1-0.2 0.6-1 1.4-2 2.7-2.9-1.6 4.3-3.5 7.7-5.9 10.5l-1 1.2c0 0.7-0.2 1.6-1 1.7-0.4 0.1-1.2-0.2-1.8 0.4-0.3 0.4 0.7 1.2-0.1 0.6-0.7-0.5-1.4 0-2.2 0.2-0.6 0.2 0.4 0.8 0.6 1.2 0.2 0.4 0.4 0.8 0.3 1.3l-1.1-1.2c-1.3 0.7-2.1 2-3.2 3-0.5 0.4-0.3 1.1-0.3 1.7-0.7 0-1.5-0.2-1.9 0.2-0.3 0.4-0.2 1-0.2 1.6-1-0.1-1.1-1.6-2-1.3-0.9 0.2-1.9 0.3-2.7 0.8 0.6 1.2-1 0.5-0.8 0.7-1.5-0.9-2.8-1.6-4.4-1-3.4-1.1-7.6-0.6-10.7-0.2 0-0.5 0.1-1-0.1-1.1-0.2 0.5-0.8 0.3-0.7 0.3-1.9-1.3-3.8-2.1-5.8-3.2-1.8 0.2-3.5-0.7-4-1.2-1.4-1.3-3-0.6-4.3-0.9-2.8-0.7-3.8-3.6-4.1-5.6-0.2-1-1-1.4-1.3-1.3-1.3-4.2-3.3-8-4.9-11.9-0.4-1-0.3-2-0.3-3.1 0.5 0.2 1 0.1 0.9-0.6-0.5-3.3-1.7-5.8-3-8.2 0.7-3.4 0.8-7.4 2.4-10.4 1.4-2.7 4-4.1 5.8-6.4 0.6-0.8 0.6-1.9 1.2-2.6 2-2 4-4.1 6.2-5.9 1-0.8 2.2 0 3.7-0.3 0.5-1.8 2.5-3.4 4.4-2.9 0.8 0.2 2.4-1.9 2.9-2.1 0.8-0.3 0.4 0.8 0.4 1.5 1.9-1.5 4.5-2.3 6.9-3.2" fill="white" fill-rule="nonzero" stroke="none" stroke-width="1" stroke-linecap="butt" stroke-linejoin="miter" stroke-miterlimit="10" stroke-dasharray="" stroke-dashoffset="0" font-family="none" font-weight="none" font-size="none" text-anchor="none" style="mix-blend-mode: normal"></path></g><g transform="matrix(1,0,0,1,121.44160864461374,90)"><svg viewBox="0 0 77.11678271077253 180" height="180" width="77.11678271077253"><g><svg viewBox="0 0 77.11678271077253 180" height="180" width="77.11678271077253"><g><svg viewBox="0 0 136.50639074863057 318.62260679245287" height="180" width="77.11678271077253"><g transform="matrix(1,0,0,1,0,138.62260679245284)"><svg viewBox="0 0 136.50639074863057 180" height="180" width="136.50639074863057"><g id="SvgjsG1384"><svg viewBox="0 0 136.50639074863057 180" height="180" width="136.50639074863057" id="SvgjsSvg1383"><g><svg viewBox="0 0 136.50639074863057 180" height="180" width="136.50639074863057"><g transform="matrix(1,0,0,1,0,0)"><svg width="136.50639074863057" viewBox="1.78 -28 30.42 40.11" height="180" data-palette-color="url(#1c75b382-2319-45aa-b0b6-394db5965219)"></svg></g></svg></g></svg></g></svg></g><g transform="matrix(1,0,0,1,26.072720632988442,0)"><svg viewBox="0 0 84.36094948265368 112.35628679245285" height="112.35628679245285" width="84.36094948265368"><g><svg xmlns="http://www.w3.org/2000/svg" xmlns:xlink="http://www.w3.org/1999/xlink" version="1.1" x="0" y="0" viewBox="16.3 5.1 67.5 89.9" style="enable-background:new 0 0 100 100;" xml:space="preserve" height="112.35628679245285" width="84.36094948265368" class="icon-icon-0" data-fill-palette-color="accent" id="SvgjsSvg1382"></svg></g></svg></g><g></g></svg></g></svg></g></svg></g></svg></g><defs><mask></mask></defs><mask><g id="SvgjsG1381"><svg viewBox="0 0 320 360" height="360" width="320"><g><svg></svg></g><g><svg viewBox="0 0 320 360" height="360" width="320"><g><path transform="translate(-74.99272,-51.79039) scale(4.65793,4.65793)" d="M20.6 59.9l0.8 1-0.4-1.3c-0.1-0.6-0.8 0.1-0.4 0.3M21.5 59.3c0.3 0.5 0.6 1 0.6 1.5 0 0.7 0.6 1 1.1 1.2-0.7-0.8-1.1-3-1.7-2.7M59.9 16.9c1.7 0 3.3-0.2 5.1 0.2 4.4 1.1 8.1 3.3 10.6 6.4l7 11.2c0.3 2.8 0.9 5.9 0.8 9.3 0.7 0 0.6-1 1.4-1.2-0.8 2-1.2 4.5-1.4 7.4-0.5-1.6 0-4 0.1-5.3-0.7 1.1-1.1 0.3-1.1-0.2 0.1-0.8-0.3-0.7-0.6-1-1.1-1-1.8-2.1-2.6-3.8 0.5-1.3 0.6-3.2-1-4.2-0.5-0.3-1.1-0.8-1.4-1.6-0.4-1.1-1.1-2.4-0.9-4.1 0.1-0.5-1.5 1.1-2.4 0.4-3.9-2.7-7.8-5.8-12.5-8.4-2.5 0-4.3-0.9-5.2-2-0.8-1-0.2-2.3 1-2.4 0.7 0 1.5-0.2 2.1 0.2 0.1-0.4 0.5-0.9 1-0.9M50 14.6l0.2 0.1c1 0.2 1.5 1.6 2.6 1.1 0 0.7 0.1 1.4-0.1 1.9-0.3 0.8-1.2 0.8-1.9 0.8-6.7-0.4-10.6 2.4-14.7 4.8-1.1 0.7-2.3 1.2-3.2 2.1-4.3 4-9 7.7-10.1 15.1l-0.9 8.2c-0.1 0.9-1.1 1.8-0.9 2.9l0.7 4.9c-0.7-0.7-1.1 0.2-0.9 0.6 0.1 0.3 0.5 1.3 1.1 0.4 0.8 1.5 1.6 4.4 2.7 5.7 3.4 4 7.8 7.6 11.4 11.2 0.9-0.2 1.6-0.2 1.8-0.8 0.3 0.6-0.3 1.2-0.8 1.3 1.6 1 3.4 1.9 5.8 2.1 3.1 0.2 6 0.7 8.7 1.4 1.4-0.4 2.8-0.6 4.3-0.7 0.5 0 0.8-0.8 1.4-1l0.1-1c0.6 0.9 0.5-0.3 0.1-0.9 0.7 0.6 0.9 1.1 1.2 1.5 0-0.3 0.8-1.4 0.8-0.1l0.2-1.3c0.3-0.2 0.4 1.1 0.7 0.2 0.3-0.9 0.9-0.2 1.5-0.5-0.2 0.4-0.1 1.2 0.6 0.7l0.8-0.7c0.5 1.2 1.3 0.7 1.7 0.5 4.4-2.8 8.8-6.1 13-9.4l-0.1 1.3 0.5-1.6c0.5 0.5 0.9 0.1 1.1-0.2 0.6-1 1.4-2 2.7-2.9-1.6 4.3-3.5 7.7-5.9 10.5l-1 1.2c0 0.7-0.2 1.6-1 1.7-0.4 0.1-1.2-0.2-1.8 0.4-0.3 0.4 0.7 1.2-0.1 0.6-0.7-0.5-1.4 0-2.2 0.2-0.6 0.2 0.4 0.8 0.6 1.2 0.2 0.4 0.4 0.8 0.3 1.3l-1.1-1.2c-1.3 0.7-2.1 2-3.2 3-0.5 0.4-0.3 1.1-0.3 1.7-0.7 0-1.5-0.2-1.9 0.2-0.3 0.4-0.2 1-0.2 1.6-1-0.1-1.1-1.6-2-1.3-0.9 0.2-1.9 0.3-2.7 0.8 0.6 1.2-1 0.5-0.8 0.7-1.5-0.9-2.8-1.6-4.4-1-3.4-1.1-7.6-0.6-10.7-0.2 0-0.5 0.1-1-0.1-1.1-0.2 0.5-0.8 0.3-0.7 0.3-1.9-1.3-3.8-2.1-5.8-3.2-1.8 0.2-3.5-0.7-4-1.2-1.4-1.3-3-0.6-4.3-0.9-2.8-0.7-3.8-3.6-4.1-5.6-0.2-1-1-1.4-1.3-1.3-1.3-4.2-3.3-8-4.9-11.9-0.4-1-0.3-2-0.3-3.1 0.5 0.2 1 0.1 0.9-0.6-0.5-3.3-1.7-5.8-3-8.2 0.7-3.4 0.8-7.4 2.4-10.4 1.4-2.7 4-4.1 5.8-6.4 0.6-0.8 0.6-1.9 1.2-2.6 2-2 4-4.1 6.2-5.9 1-0.8 2.2 0 3.7-0.3 0.5-1.8 2.5-3.4 4.4-2.9 0.8 0.2 2.4-1.9 2.9-2.1 0.8-0.3 0.4 0.8 0.4 1.5 1.9-1.5 4.5-2.3 6.9-3.2" fill="black" fill-rule="nonzero" stroke="none" stroke-width="1" stroke-linecap="butt" stroke-linejoin="miter" stroke-miterlimit="10" stroke-dasharray="" stroke-dashoffset="0" font-family="none" font-weight="none" font-size="none" text-anchor="none" style="mix-blend-mode: normal"></path></g><g transform="matrix(1,0,0,1,121.44160864461374,90)"><svg viewBox="0 0 77.11678271077253 180" height="180" width="77.11678271077253"><g><svg viewBox="0 0 77.11678271077253 180" height="180" width="77.11678271077253"><g><svg viewBox="0 0 136.50639074863057 318.62260679245287" height="180" width="77.11678271077253"><g transform="matrix(1,0,0,1,0,138.62260679245284)"><svg viewBox="0 0 136.50639074863057 180" height="180" width="136.50639074863057"><g id="SvgjsG1380"><svg viewBox="0 0 136.50639074863057 180" height="180" width="136.50639074863057" id="SvgjsSvg1379"><g><svg viewBox="0 0 136.50639074863057 180" height="180" width="136.50639074863057"><g transform="matrix(1,0,0,1,0,0)"><svg width="136.50639074863057" viewBox="1.78 -28 30.42 40.11" height="180" data-palette-color="url(#1c75b382-2319-45aa-b0b6-394db5965219)"><path d="M13.92-17.41L13.84-17.04Q13.7-14.7 13.59-13.23 13.48-11.77 13.4-10.85 13.33-9.94 13.28-9.41 13.23-8.89 13.21-8.42L13.21-8.42Q13.77-6.96 14.87-6.04 15.97-5.13 17.5-5.13L17.5-5.13Q18.85-5.13 19.86-5.97 20.87-6.81 21.55-8.15 22.22-9.5 22.56-11.16 22.9-12.82 22.9-14.45L22.9-14.45Q22.9-15.8 22.67-16.94 22.44-18.09 21.97-18.93 21.51-19.78 20.81-20.25 20.12-20.73 19.17-20.73L19.17-20.73Q18.38-20.73 17.61-20.42 16.85-20.12 16.14-19.64 15.43-19.17 14.86-18.57 14.28-17.97 13.92-17.41L13.92-17.41ZM14.33-24.19L14.33-24.19Q16.38-25.59 18.63-26.42 20.87-27.25 23.32-27.25L23.32-27.25Q25.61-27.25 27.28-26.31 28.96-25.37 30.05-23.77 31.15-22.17 31.68-20.09 32.2-18.02 32.2-15.75L32.2-15.75Q32.2-13.77 31.81-11.74 31.42-9.72 30.66-7.82 29.91-5.93 28.78-4.27 27.66-2.61 26.21-1.38 24.76-0.15 22.97 0.56 21.19 1.27 19.12 1.27L19.12 1.27Q17.29 1.27 15.61 0.54 13.94-0.2 12.48-1.37L12.48-1.37Q12.48-1.25 12.41-0.48 12.35 0.29 12.26 1.39 12.16 2.49 12.04 3.75 11.91 5 11.82 6.1 11.72 7.2 11.66 7.97 11.6 8.74 11.6 8.86L11.6 8.86Q11.6 9.06 11.61 9.19 11.62 9.33 11.62 9.45L11.62 9.45Q11.62 9.64 11.44 9.78 11.25 9.91 10.62 10.08L10.62 10.08 4.2 11.72Q3.93 11.79 3.49 11.95 3.05 12.11 2.64 12.11L2.64 12.11Q2.29 12.11 2.04 11.94 1.78 11.77 1.78 11.3L1.78 11.3 4.76-24.44Q4.83-25.24 4.94-25.55 5.05-25.85 5.49-25.95L5.49-25.95Q7.71-26.39 10.06-26.84 12.4-27.29 14.62-28L14.62-28Q14.82-28 14.86-27.94 14.89-27.88 14.89-27.76L14.89-27.76Q14.89-27.71 14.88-27.61 14.87-27.51 14.81-27.17 14.75-26.83 14.64-26.14 14.53-25.44 14.33-24.19Z" opacity="1" transform="matrix(1,0,0,1,0,0)" fill="black" class="wordmark-text-0" id="SvgjsPath1378"></path></svg></g></svg></g></svg></g></svg></g><g transform="matrix(1,0,0,1,26.072720632988442,0)"><svg viewBox="0 0 84.36094948265368 112.35628679245285" height="112.35628679245285" width="84.36094948265368"><g><svg xmlns="http://www.w3.org/2000/svg" xmlns:xlink="http://www.w3.org/1999/xlink" version="1.1" x="0" y="0" viewBox="16.3 5.1 67.5 89.9" style="enable-background:new 0 0 100 100;" xml:space="preserve" height="112.35628679245285" width="84.36094948265368" class="icon-icon-0" data-fill-palette-color="accent" id="SvgjsSvg1377"><g fill="black"><g fill="black"><path d="M83.7 26.3C83.7 25.5 83.4 24.7 82.8 24.1L66 6.1C65.4 5.4 64.5 5.1 63.6 5.1H21.6C18.7 5.1 16.3 7.5 16.3 10.4V89.7C16.3 92.6 18.7 95 21.6 95H78.5C81.4 95 83.8 92.6 83.8 89.7zM78.5 91H21.6C20.9 91 20.3 90.4 20.3 89.7V10.4C20.3 9.7 20.9 9.1 21.6 9.1H62.9V21C62.9 24.2 65.5 26.8 68.7 26.8H79.8V89.7C79.8 90.4 79.2 91 78.5 91" fill="black"></path><path d="M41 72.8H36.1V70H39.5C40.3 70 40.7 69.6 40.7 68.8V68C40.7 67.2 40.3 66.8 39.5 66.8H36.1V64.1H40.7C41.5 64.1 41.9 63.7 41.9 62.9V62.1C41.9 61.3 41.5 60.9 40.7 60.9H33.6C32.8 60.9 32.4 61.3 32.4 62.1V74.8C32.4 75.6 32.8 76 33.6 76H41C41.8 76 42.2 75.6 42.2 74.8V74C42.2 73.2 41.8 72.8 41 72.8" fill="black"></path><path d="M51.9 60.9H46.8C46 60.9 45.6 61.3 45.6 62.1V74.8C45.6 75.6 46 76 46.8 76H48.2C49 76 49.4 75.6 49.4 74.8V71.3H52C54.9 71.3 56.9 69.1 56.9 66.1S54.8 60.9 51.9 60.9M51.2 68.1H49.4V64H51.3C52.5 64 53.1 64.8 53.1 66 53.1 67.3 52.4 68.1 51.2 68.1" fill="black"></path><path d="M63.2 65.1C63.2 64.5 63.7 64.1 64.8 64.1 65.8 64.1 66.5 64.5 67.2 64.8 67.8 65.1 68.4 65.2 68.8 64.4L69.3 63.4C69.6 62.8 69.6 62.3 68.9 61.8S66.6 60.7 64.8 60.7C61.8 60.7 59.4 62.5 59.4 65.3 59.4 70 66 69.7 66 71.8 66 72.4 65.5 72.8 64.4 72.8 63.1 72.8 62.2 72.1 61.7 71.9 61 71.5 60.5 71.6 60.1 72.2L59.4 73.1C58.9 73.9 59.2 74.3 59.6 74.7 60.4 75.3 62.3 76.2 64.4 76.2 67.8 76.2 69.7 74 69.7 71.5 69.9 66.8 63.2 67.3 63.2 65.1" fill="black"></path></g></g></svg></g></svg></g><g></g></svg></g></svg></g></svg></g></svg></g><defs><mask></mask></defs></svg><rect width="320" height="360" fill="black" stroke="none" visibility="hidden"></rect></g></mask><mask><g id="SvgjsG1376"><svg viewBox="0 0 320 360" height="360" width="320"><g><svg></svg></g><g><svg viewBox="0 0 320 360" height="360" width="320"><g><path transform="translate(-74.99272,-51.79039) scale(4.65793,4.65793)" d="M20.6 59.9l0.8 1-0.4-1.3c-0.1-0.6-0.8 0.1-0.4 0.3M21.5 59.3c0.3 0.5 0.6 1 0.6 1.5 0 0.7 0.6 1 1.1 1.2-0.7-0.8-1.1-3-1.7-2.7M59.9 16.9c1.7 0 3.3-0.2 5.1 0.2 4.4 1.1 8.1 3.3 10.6 6.4l7 11.2c0.3 2.8 0.9 5.9 0.8 9.3 0.7 0 0.6-1 1.4-1.2-0.8 2-1.2 4.5-1.4 7.4-0.5-1.6 0-4 0.1-5.3-0.7 1.1-1.1 0.3-1.1-0.2 0.1-0.8-0.3-0.7-0.6-1-1.1-1-1.8-2.1-2.6-3.8 0.5-1.3 0.6-3.2-1-4.2-0.5-0.3-1.1-0.8-1.4-1.6-0.4-1.1-1.1-2.4-0.9-4.1 0.1-0.5-1.5 1.1-2.4 0.4-3.9-2.7-7.8-5.8-12.5-8.4-2.5 0-4.3-0.9-5.2-2-0.8-1-0.2-2.3 1-2.4 0.7 0 1.5-0.2 2.1 0.2 0.1-0.4 0.5-0.9 1-0.9M50 14.6l0.2 0.1c1 0.2 1.5 1.6 2.6 1.1 0 0.7 0.1 1.4-0.1 1.9-0.3 0.8-1.2 0.8-1.9 0.8-6.7-0.4-10.6 2.4-14.7 4.8-1.1 0.7-2.3 1.2-3.2 2.1-4.3 4-9 7.7-10.1 15.1l-0.9 8.2c-0.1 0.9-1.1 1.8-0.9 2.9l0.7 4.9c-0.7-0.7-1.1 0.2-0.9 0.6 0.1 0.3 0.5 1.3 1.1 0.4 0.8 1.5 1.6 4.4 2.7 5.7 3.4 4 7.8 7.6 11.4 11.2 0.9-0.2 1.6-0.2 1.8-0.8 0.3 0.6-0.3 1.2-0.8 1.3 1.6 1 3.4 1.9 5.8 2.1 3.1 0.2 6 0.7 8.7 1.4 1.4-0.4 2.8-0.6 4.3-0.7 0.5 0 0.8-0.8 1.4-1l0.1-1c0.6 0.9 0.5-0.3 0.1-0.9 0.7 0.6 0.9 1.1 1.2 1.5 0-0.3 0.8-1.4 0.8-0.1l0.2-1.3c0.3-0.2 0.4 1.1 0.7 0.2 0.3-0.9 0.9-0.2 1.5-0.5-0.2 0.4-0.1 1.2 0.6 0.7l0.8-0.7c0.5 1.2 1.3 0.7 1.7 0.5 4.4-2.8 8.8-6.1 13-9.4l-0.1 1.3 0.5-1.6c0.5 0.5 0.9 0.1 1.1-0.2 0.6-1 1.4-2 2.7-2.9-1.6 4.3-3.5 7.7-5.9 10.5l-1 1.2c0 0.7-0.2 1.6-1 1.7-0.4 0.1-1.2-0.2-1.8 0.4-0.3 0.4 0.7 1.2-0.1 0.6-0.7-0.5-1.4 0-2.2 0.2-0.6 0.2 0.4 0.8 0.6 1.2 0.2 0.4 0.4 0.8 0.3 1.3l-1.1-1.2c-1.3 0.7-2.1 2-3.2 3-0.5 0.4-0.3 1.1-0.3 1.7-0.7 0-1.5-0.2-1.9 0.2-0.3 0.4-0.2 1-0.2 1.6-1-0.1-1.1-1.6-2-1.3-0.9 0.2-1.9 0.3-2.7 0.8 0.6 1.2-1 0.5-0.8 0.7-1.5-0.9-2.8-1.6-4.4-1-3.4-1.1-7.6-0.6-10.7-0.2 0-0.5 0.1-1-0.1-1.1-0.2 0.5-0.8 0.3-0.7 0.3-1.9-1.3-3.8-2.1-5.8-3.2-1.8 0.2-3.5-0.7-4-1.2-1.4-1.3-3-0.6-4.3-0.9-2.8-0.7-3.8-3.6-4.1-5.6-0.2-1-1-1.4-1.3-1.3-1.3-4.2-3.3-8-4.9-11.9-0.4-1-0.3-2-0.3-3.1 0.5 0.2 1 0.1 0.9-0.6-0.5-3.3-1.7-5.8-3-8.2 0.7-3.4 0.8-7.4 2.4-10.4 1.4-2.7 4-4.1 5.8-6.4 0.6-0.8 0.6-1.9 1.2-2.6 2-2 4-4.1 6.2-5.9 1-0.8 2.2 0 3.7-0.3 0.5-1.8 2.5-3.4 4.4-2.9 0.8 0.2 2.4-1.9 2.9-2.1 0.8-0.3 0.4 0.8 0.4 1.5 1.9-1.5 4.5-2.3 6.9-3.2" fill="black" fill-rule="nonzero" stroke="none" stroke-width="1" stroke-linecap="butt" stroke-linejoin="miter" stroke-miterlimit="10" stroke-dasharray="" stroke-dashoffset="0" font-family="none" font-weight="none" font-size="none" text-anchor="none" style="mix-blend-mode: normal"></path></g><g transform="matrix(1,0,0,1,121.44160864461374,90)"><svg viewBox="0 0 77.11678271077253 180" height="180" width="77.11678271077253"><g><svg viewBox="0 0 77.11678271077253 180" height="180" width="77.11678271077253"><g><svg viewBox="0 0 136.50639074863057 318.62260679245287" height="180" width="77.11678271077253"><g transform="matrix(1,0,0,1,0,138.62260679245284)"><svg viewBox="0 0 136.50639074863057 180" height="180" width="136.50639074863057"><g id="SvgjsG1375"><svg viewBox="0 0 136.50639074863057 180" height="180" width="136.50639074863057" id="SvgjsSvg1374"><g><svg viewBox="0 0 136.50639074863057 180" height="180" width="136.50639074863057"><g transform="matrix(1,0,0,1,0,0)"><svg width="136.50639074863057" viewBox="1.78 -28 30.42 40.11" height="180" data-palette-color="url(#1c75b382-2319-45aa-b0b6-394db5965219)"></svg></g></svg></g></svg></g></svg></g><g transform="matrix(1,0,0,1,26.072720632988442,0)"><svg viewBox="0 0 84.36094948265368 112.35628679245285" height="112.35628679245285" width="84.36094948265368"><g><svg xmlns="http://www.w3.org/2000/svg" xmlns:xlink="http://www.w3.org/1999/xlink" version="1.1" x="0" y="0" viewBox="16.3 5.1 67.5 89.9" style="enable-background:new 0 0 100 100;" xml:space="preserve" height="112.35628679245285" width="84.36094948265368" class="icon-icon-0" data-fill-palette-color="accent" id="SvgjsSvg1373"><g fill="black"><g fill="black"><path d="M83.7 26.3C83.7 25.5 83.4 24.7 82.8 24.1L66 6.1C65.4 5.4 64.5 5.1 63.6 5.1H21.6C18.7 5.1 16.3 7.5 16.3 10.4V89.7C16.3 92.6 18.7 95 21.6 95H78.5C81.4 95 83.8 92.6 83.8 89.7zM78.5 91H21.6C20.9 91 20.3 90.4 20.3 89.7V10.4C20.3 9.7 20.9 9.1 21.6 9.1H62.9V21C62.9 24.2 65.5 26.8 68.7 26.8H79.8V89.7C79.8 90.4 79.2 91 78.5 91" fill="black"></path><path d="M41 72.8H36.1V70H39.5C40.3 70 40.7 69.6 40.7 68.8V68C40.7 67.2 40.3 66.8 39.5 66.8H36.1V64.1H40.7C41.5 64.1 41.9 63.7 41.9 62.9V62.1C41.9 61.3 41.5 60.9 40.7 60.9H33.6C32.8 60.9 32.4 61.3 32.4 62.1V74.8C32.4 75.6 32.8 76 33.6 76H41C41.8 76 42.2 75.6 42.2 74.8V74C42.2 73.2 41.8 72.8 41 72.8" fill="black"></path><path d="M51.9 60.9H46.8C46 60.9 45.6 61.3 45.6 62.1V74.8C45.6 75.6 46 76 46.8 76H48.2C49 76 49.4 75.6 49.4 74.8V71.3H52C54.9 71.3 56.9 69.1 56.9 66.1S54.8 60.9 51.9 60.9M51.2 68.1H49.4V64H51.3C52.5 64 53.1 64.8 53.1 66 53.1 67.3 52.4 68.1 51.2 68.1" fill="black"></path><path d="M63.2 65.1C63.2 64.5 63.7 64.1 64.8 64.1 65.8 64.1 66.5 64.5 67.2 64.8 67.8 65.1 68.4 65.2 68.8 64.4L69.3 63.4C69.6 62.8 69.6 62.3 68.9 61.8S66.6 60.7 64.8 60.7C61.8 60.7 59.4 62.5 59.4 65.3 59.4 70 66 69.7 66 71.8 66 72.4 65.5 72.8 64.4 72.8 63.1 72.8 62.2 72.1 61.7 71.9 61 71.5 60.5 71.6 60.1 72.2L59.4 73.1C58.9 73.9 59.2 74.3 59.6 74.7 60.4 75.3 62.3 76.2 64.4 76.2 67.8 76.2 69.7 74 69.7 71.5 69.9 66.8 63.2 67.3 63.2 65.1" fill="black"></path></g></g></svg></g></svg></g><g></g></svg></g></svg></g></svg></g></svg></g><defs><mask></mask></defs><mask><g id="SvgjsG1372"><svg viewBox="0 0 320 360" height="360" width="320"><g><svg></svg></g><g><svg viewBox="0 0 320 360" height="360" width="320"><g><path transform="translate(-74.99272,-51.79039) scale(4.65793,4.65793)" d="M20.6 59.9l0.8 1-0.4-1.3c-0.1-0.6-0.8 0.1-0.4 0.3M21.5 59.3c0.3 0.5 0.6 1 0.6 1.5 0 0.7 0.6 1 1.1 1.2-0.7-0.8-1.1-3-1.7-2.7M59.9 16.9c1.7 0 3.3-0.2 5.1 0.2 4.4 1.1 8.1 3.3 10.6 6.4l7 11.2c0.3 2.8 0.9 5.9 0.8 9.3 0.7 0 0.6-1 1.4-1.2-0.8 2-1.2 4.5-1.4 7.4-0.5-1.6 0-4 0.1-5.3-0.7 1.1-1.1 0.3-1.1-0.2 0.1-0.8-0.3-0.7-0.6-1-1.1-1-1.8-2.1-2.6-3.8 0.5-1.3 0.6-3.2-1-4.2-0.5-0.3-1.1-0.8-1.4-1.6-0.4-1.1-1.1-2.4-0.9-4.1 0.1-0.5-1.5 1.1-2.4 0.4-3.9-2.7-7.8-5.8-12.5-8.4-2.5 0-4.3-0.9-5.2-2-0.8-1-0.2-2.3 1-2.4 0.7 0 1.5-0.2 2.1 0.2 0.1-0.4 0.5-0.9 1-0.9M50 14.6l0.2 0.1c1 0.2 1.5 1.6 2.6 1.1 0 0.7 0.1 1.4-0.1 1.9-0.3 0.8-1.2 0.8-1.9 0.8-6.7-0.4-10.6 2.4-14.7 4.8-1.1 0.7-2.3 1.2-3.2 2.1-4.3 4-9 7.7-10.1 15.1l-0.9 8.2c-0.1 0.9-1.1 1.8-0.9 2.9l0.7 4.9c-0.7-0.7-1.1 0.2-0.9 0.6 0.1 0.3 0.5 1.3 1.1 0.4 0.8 1.5 1.6 4.4 2.7 5.7 3.4 4 7.8 7.6 11.4 11.2 0.9-0.2 1.6-0.2 1.8-0.8 0.3 0.6-0.3 1.2-0.8 1.3 1.6 1 3.4 1.9 5.8 2.1 3.1 0.2 6 0.7 8.7 1.4 1.4-0.4 2.8-0.6 4.3-0.7 0.5 0 0.8-0.8 1.4-1l0.1-1c0.6 0.9 0.5-0.3 0.1-0.9 0.7 0.6 0.9 1.1 1.2 1.5 0-0.3 0.8-1.4 0.8-0.1l0.2-1.3c0.3-0.2 0.4 1.1 0.7 0.2 0.3-0.9 0.9-0.2 1.5-0.5-0.2 0.4-0.1 1.2 0.6 0.7l0.8-0.7c0.5 1.2 1.3 0.7 1.7 0.5 4.4-2.8 8.8-6.1 13-9.4l-0.1 1.3 0.5-1.6c0.5 0.5 0.9 0.1 1.1-0.2 0.6-1 1.4-2 2.7-2.9-1.6 4.3-3.5 7.7-5.9 10.5l-1 1.2c0 0.7-0.2 1.6-1 1.7-0.4 0.1-1.2-0.2-1.8 0.4-0.3 0.4 0.7 1.2-0.1 0.6-0.7-0.5-1.4 0-2.2 0.2-0.6 0.2 0.4 0.8 0.6 1.2 0.2 0.4 0.4 0.8 0.3 1.3l-1.1-1.2c-1.3 0.7-2.1 2-3.2 3-0.5 0.4-0.3 1.1-0.3 1.7-0.7 0-1.5-0.2-1.9 0.2-0.3 0.4-0.2 1-0.2 1.6-1-0.1-1.1-1.6-2-1.3-0.9 0.2-1.9 0.3-2.7 0.8 0.6 1.2-1 0.5-0.8 0.7-1.5-0.9-2.8-1.6-4.4-1-3.4-1.1-7.6-0.6-10.7-0.2 0-0.5 0.1-1-0.1-1.1-0.2 0.5-0.8 0.3-0.7 0.3-1.9-1.3-3.8-2.1-5.8-3.2-1.8 0.2-3.5-0.7-4-1.2-1.4-1.3-3-0.6-4.3-0.9-2.8-0.7-3.8-3.6-4.1-5.6-0.2-1-1-1.4-1.3-1.3-1.3-4.2-3.3-8-4.9-11.9-0.4-1-0.3-2-0.3-3.1 0.5 0.2 1 0.1 0.9-0.6-0.5-3.3-1.7-5.8-3-8.2 0.7-3.4 0.8-7.4 2.4-10.4 1.4-2.7 4-4.1 5.8-6.4 0.6-0.8 0.6-1.9 1.2-2.6 2-2 4-4.1 6.2-5.9 1-0.8 2.2 0 3.7-0.3 0.5-1.8 2.5-3.4 4.4-2.9 0.8 0.2 2.4-1.9 2.9-2.1 0.8-0.3 0.4 0.8 0.4 1.5 1.9-1.5 4.5-2.3 6.9-3.2" fill="black" fill-rule="nonzero" stroke="none" stroke-width="1" stroke-linecap="butt" stroke-linejoin="miter" stroke-miterlimit="10" stroke-dasharray="" stroke-dashoffset="0" font-family="none" font-weight="none" font-size="none" text-anchor="none" style="mix-blend-mode: normal"></path></g><g transform="matrix(1,0,0,1,121.44160864461374,90)"><svg viewBox="0 0 77.11678271077253 180" height="180" width="77.11678271077253"><g><svg viewBox="0 0 77.11678271077253 180" height="180" width="77.11678271077253"><g><svg viewBox="0 0 136.50639074863057 318.62260679245287" height="180" width="77.11678271077253"><g transform="matrix(1,0,0,1,0,138.62260679245284)"><svg viewBox="0 0 136.50639074863057 180" height="180" width="136.50639074863057"><g id="SvgjsG1371"><svg viewBox="0 0 136.50639074863057 180" height="180" width="136.50639074863057" id="SvgjsSvg1370"><g><svg viewBox="0 0 136.50639074863057 180" height="180" width="136.50639074863057"><g transform="matrix(1,0,0,1,0,0)"><svg width="136.50639074863057" viewBox="1.78 -28 30.42 40.11" height="180" data-palette-color="url(#1c75b382-2319-45aa-b0b6-394db5965219)"><path d="M13.92-17.41L13.84-17.04Q13.7-14.7 13.59-13.23 13.48-11.77 13.4-10.85 13.33-9.94 13.28-9.41 13.23-8.89 13.21-8.42L13.21-8.42Q13.77-6.96 14.87-6.04 15.97-5.13 17.5-5.13L17.5-5.13Q18.85-5.13 19.86-5.97 20.87-6.81 21.55-8.15 22.22-9.5 22.56-11.16 22.9-12.82 22.9-14.45L22.9-14.45Q22.9-15.8 22.67-16.94 22.44-18.09 21.97-18.93 21.51-19.78 20.81-20.25 20.12-20.73 19.17-20.73L19.17-20.73Q18.38-20.73 17.61-20.42 16.85-20.12 16.14-19.64 15.43-19.17 14.86-18.57 14.28-17.97 13.92-17.41L13.92-17.41ZM14.33-24.19L14.33-24.19Q16.38-25.59 18.63-26.42 20.87-27.25 23.32-27.25L23.32-27.25Q25.61-27.25 27.28-26.31 28.96-25.37 30.05-23.77 31.15-22.17 31.68-20.09 32.2-18.02 32.2-15.75L32.2-15.75Q32.2-13.77 31.81-11.74 31.42-9.72 30.66-7.82 29.91-5.93 28.78-4.27 27.66-2.61 26.21-1.38 24.76-0.15 22.97 0.56 21.19 1.27 19.12 1.27L19.12 1.27Q17.29 1.27 15.61 0.54 13.94-0.2 12.48-1.37L12.48-1.37Q12.48-1.25 12.41-0.48 12.35 0.29 12.26 1.39 12.16 2.49 12.04 3.75 11.91 5 11.82 6.1 11.72 7.2 11.66 7.97 11.6 8.74 11.6 8.86L11.6 8.86Q11.6 9.06 11.61 9.19 11.62 9.33 11.62 9.45L11.62 9.45Q11.62 9.64 11.44 9.78 11.25 9.91 10.62 10.08L10.62 10.08 4.2 11.72Q3.93 11.79 3.49 11.95 3.05 12.11 2.64 12.11L2.64 12.11Q2.29 12.11 2.04 11.94 1.78 11.77 1.78 11.3L1.78 11.3 4.76-24.44Q4.83-25.24 4.94-25.55 5.05-25.85 5.49-25.95L5.49-25.95Q7.71-26.39 10.06-26.84 12.4-27.29 14.62-28L14.62-28Q14.82-28 14.86-27.94 14.89-27.88 14.89-27.76L14.89-27.76Q14.89-27.71 14.88-27.61 14.87-27.51 14.81-27.17 14.75-26.83 14.64-26.14 14.53-25.44 14.33-24.19Z" opacity="1" transform="matrix(1,0,0,1,0,0)" fill="black" class="wordmark-text-0" id="SvgjsPath1369"></path></svg></g></svg></g></svg></g></svg></g><g transform="matrix(1,0,0,1,26.072720632988442,0)"><svg viewBox="0 0 84.36094948265368 112.35628679245285" height="112.35628679245285" width="84.36094948265368"><g><svg xmlns="http://www.w3.org/2000/svg" xmlns:xlink="http://www.w3.org/1999/xlink" version="1.1" x="0" y="0" viewBox="16.3 5.1 67.5 89.9" style="enable-background:new 0 0 100 100;" xml:space="preserve" height="112.35628679245285" width="84.36094948265368" class="icon-icon-0" data-fill-palette-color="accent" id="SvgjsSvg1368"><g fill="black"><g fill="black"><path d="M83.7 26.3C83.7 25.5 83.4 24.7 82.8 24.1L66 6.1C65.4 5.4 64.5 5.1 63.6 5.1H21.6C18.7 5.1 16.3 7.5 16.3 10.4V89.7C16.3 92.6 18.7 95 21.6 95H78.5C81.4 95 83.8 92.6 83.8 89.7zM78.5 91H21.6C20.9 91 20.3 90.4 20.3 89.7V10.4C20.3 9.7 20.9 9.1 21.6 9.1H62.9V21C62.9 24.2 65.5 26.8 68.7 26.8H79.8V89.7C79.8 90.4 79.2 91 78.5 91" fill="black"></path><path d="M41 72.8H36.1V70H39.5C40.3 70 40.7 69.6 40.7 68.8V68C40.7 67.2 40.3 66.8 39.5 66.8H36.1V64.1H40.7C41.5 64.1 41.9 63.7 41.9 62.9V62.1C41.9 61.3 41.5 60.9 40.7 60.9H33.6C32.8 60.9 32.4 61.3 32.4 62.1V74.8C32.4 75.6 32.8 76 33.6 76H41C41.8 76 42.2 75.6 42.2 74.8V74C42.2 73.2 41.8 72.8 41 72.8" fill="black"></path><path d="M51.9 60.9H46.8C46 60.9 45.6 61.3 45.6 62.1V74.8C45.6 75.6 46 76 46.8 76H48.2C49 76 49.4 75.6 49.4 74.8V71.3H52C54.9 71.3 56.9 69.1 56.9 66.1S54.8 60.9 51.9 60.9M51.2 68.1H49.4V64H51.3C52.5 64 53.1 64.8 53.1 66 53.1 67.3 52.4 68.1 51.2 68.1" fill="black"></path><path d="M63.2 65.1C63.2 64.5 63.7 64.1 64.8 64.1 65.8 64.1 66.5 64.5 67.2 64.8 67.8 65.1 68.4 65.2 68.8 64.4L69.3 63.4C69.6 62.8 69.6 62.3 68.9 61.8S66.6 60.7 64.8 60.7C61.8 60.7 59.4 62.5 59.4 65.3 59.4 70 66 69.7 66 71.8 66 72.4 65.5 72.8 64.4 72.8 63.1 72.8 62.2 72.1 61.7 71.9 61 71.5 60.5 71.6 60.1 72.2L59.4 73.1C58.9 73.9 59.2 74.3 59.6 74.7 60.4 75.3 62.3 76.2 64.4 76.2 67.8 76.2 69.7 74 69.7 71.5 69.9 66.8 63.2 67.3 63.2 65.1" fill="black"></path></g></g></svg></g></svg></g><g></g></svg></g></svg></g></svg></g></svg></g><defs><mask></mask></defs></svg><rect width="320" height="360" fill="black" stroke="none" visibility="hidden"></rect></g></mask></svg><rect width="320" height="360" fill="black" stroke="none" visibility="hidden"></rect></g></mask></svg><rect width="320" height="360" fill="black" stroke="none" visibility="hidden"></rect></g></mask><linearGradient x1="0" x2="1" y1="0.578" y2="0.595" id="06fa1b21-aae4-401a-b8b7-415b1eb88f94"><stop stop-color="#dede50" offset="0"></stop><stop stop-color="#559c49" offset="1"></stop></linearGradient></svg><rect width="320" height="360" fill="none" stroke="none" visibility="hidden"></rect></g></svg></g></svg>